<?xml version="1.0" standalone="no"?>
<!DOCTYPE svg PUBLIC "-//W3C//DTD SVG 20010904//EN"
 "http://www.w3.org/TR/2001/REC-SVG-20010904/DTD/svg10.dtd">
<svg version="1.0" xmlns="http://www.w3.org/2000/svg"
 width="449.000000pt" height="449.000000pt" viewBox="0 0 449.000000 449.000000"
 preserveAspectRatio="xMidYMid meet">
<g transform="translate(0.000000,449.000000) scale(0.100000,-0.100000)"
fill="#000000" stroke="none">
<path d="M2015 4478 c-319 -32 -676 -155 -956 -328 -282 -175 -544 -437 -720
-721 -216 -348 -339 -778 -339 -1184 0 -407 123 -837 340 -1187 174 -280 438
-544 719 -718 562 -348 1254 -433 1881 -229 672 219 1203 744 1429 1414 240
714 116 1474 -342 2084 -91 122 -284 316 -405 409 -462 354 -1034 518 -1607
460z m492 -253 c437 -58 834 -255 1149 -569 380 -380 584 -873 584 -1411 0
-538 -203 -1029 -584 -1411 -379 -379 -873 -584 -1411 -584 -538 0 -1029 203
-1411 584 -379 379 -584 873 -584 1411 0 924 617 1711 1521 1940 212 54 506
70 736 40z"/>
<path d="M1459 3103 c-78 -137 -223 -387 -321 -557 l-177 -309 18 -31 c77
-129 335 -567 460 -783 84 -145 155 -265 159 -267 4 -2 49 67 100 155 l93 159
-64 108 c-63 104 -352 605 -376 649 -10 20 3 47 138 270 82 137 183 309 224
383 l76 135 167 3 167 2 -6 -37 c-4 -21 -7 -206 -7 -412 l-1 -374 75 -81 76
-81 22 26 c13 15 45 51 71 82 l48 55 6 411 6 411 136 0 136 0 125 -213 c175
-299 320 -557 320 -570 0 -6 -67 -126 -149 -266 -231 -398 -281 -487 -281
-502 0 -15 132 -251 165 -294 l20 -27 114 199 c246 426 494 859 503 879 9 19
-20 74 -192 370 -112 192 -255 439 -319 549 l-116 200 -636 3 -636 2 -144
-247z"/>
</g>
</svg>
